# xmcd CD database file
#
# Track frame offsets:
#	150
#	16078
#	33176
#	48522
#	66425
#	83515
#	98461
#	122450
#	143443
#	158596
#	173674
#	186590
#	204744
#	219984
#	234675
#
# Disc length: 3405 seconds
#
# Revision: 0
# Processed by: cddbd v1.5PL3 Copyright (c) Steve Scherf et al.
# Submitted via: CDex 1.40Beta9
#
DISCID=ba0d4b0f
DTITLE=F.Co - Any Other Way
DYEAR=2004
DGENRE=Country
TTITLE0=We Can Hold Our Own
TTITLE1=Time of Your Life
TTITLE2=Beer Joint Gospel
TTITLE3=Song On An Empty Floor
TTITLE4=Nobody Living Up To My Name
TTITLE5=Any Other Way
TTITLE6=Please Don't Send Me To Heaven
TTITLE7=Next To Neon
TTITLE8=Marooned In Modesto
TTITLE9=You Are Everything
TTITLE10=2:20 On 2249
TTITLE11=Drive
TTITLE12=Working Hard
TTITLE13=Ann's Song
TTITLE14=Somewhere Sometime
EXTD=YEAR: 2004 ID3G: 2
EXTT0=
EXTT1=
EXTT2=
EXTT3=
EXTT4=
EXTT5=
EXTT6=
EXTT7=
EXTT8=
EXTT9=
EXTT10=
EXTT11=
EXTT12=
EXTT13=
EXTT14=
PLAYORDER=
